<svg width="889" height="250" viewBox="0 0 889 250" fill="none" xmlns="http://www.w3.org/2000/svg">
<circle cx="125" cy="125" r="125" fill="#DBFF73"/>
<path d="M51 120.947L186 57L122.053 192L107.842 135.158L51 120.947Z" stroke="#5A6D22" stroke-width="18" stroke-linecap="round" stroke-linejoin="round"/>
<path d="M314.125 102.548V88.2727H375.595V102.548H353.543V161H336.213V102.548H314.125ZM378.516 161V106.455H395.384V116.398H395.952C396.946 112.799 398.568 110.124 400.817 108.372C403.066 106.597 405.682 105.709 408.665 105.709C409.47 105.709 410.299 105.768 411.151 105.886C412.003 105.981 412.796 106.135 413.53 106.348V121.44C412.702 121.156 411.613 120.931 410.263 120.766C408.937 120.6 407.754 120.517 406.712 120.517C404.652 120.517 402.794 120.979 401.137 121.902C399.503 122.802 398.213 124.068 397.266 125.702C396.343 127.312 395.881 129.205 395.881 131.384V161H378.516ZM420.606 161V106.455H437.971V161H420.606ZM429.306 100.098C426.868 100.098 424.772 99.2931 423.021 97.6832C421.269 96.0497 420.393 94.0848 420.393 91.7884C420.393 89.5156 421.269 87.5743 423.021 85.9645C424.772 84.331 426.868 83.5142 429.306 83.5142C431.768 83.5142 433.863 84.331 435.592 85.9645C437.344 87.5743 438.219 89.5156 438.219 91.7884C438.219 94.0848 437.344 96.0497 435.592 97.6832C433.863 99.2931 431.768 100.098 429.306 100.098ZM449.024 181.455V106.455H466.211V115.794H466.744C467.454 114.137 468.46 112.539 469.762 111C471.088 109.461 472.769 108.206 474.805 107.236C476.865 106.241 479.327 105.744 482.191 105.744C485.979 105.744 489.519 106.739 492.809 108.727C496.124 110.716 498.799 113.782 500.835 117.925C502.871 122.068 503.889 127.347 503.889 133.763C503.889 139.942 502.906 145.115 500.941 149.281C499 153.448 496.372 156.573 493.058 158.656C489.767 160.74 486.109 161.781 482.085 161.781C479.339 161.781 476.959 161.331 474.947 160.432C472.935 159.532 471.242 158.348 469.869 156.881C468.52 155.413 467.478 153.839 466.744 152.158H466.389V181.455H449.024ZM466.034 133.727C466.034 136.663 466.424 139.22 467.206 141.398C468.011 143.576 469.159 145.268 470.65 146.476C472.165 147.66 473.976 148.251 476.083 148.251C478.214 148.251 480.025 147.66 481.517 146.476C483.008 145.268 484.133 143.576 484.89 141.398C485.672 139.22 486.062 136.663 486.062 133.727C486.062 130.792 485.672 128.247 484.89 126.092C484.133 123.938 483.008 122.269 481.517 121.085C480.049 119.902 478.238 119.31 476.083 119.31C473.953 119.31 472.142 119.89 470.65 121.05C469.159 122.21 468.011 123.867 467.206 126.021C466.424 128.176 466.034 130.744 466.034 133.727ZM512.989 161V88.2727H543.031C548.476 88.2727 553.176 89.3381 557.129 91.4688C561.107 93.5758 564.172 96.5232 566.327 100.311C568.481 104.075 569.558 108.455 569.558 113.45C569.558 118.469 568.457 122.861 566.256 126.625C564.078 130.366 560.964 133.266 556.916 135.325C552.868 137.385 548.062 138.415 542.499 138.415H523.962V124.565H539.232C541.883 124.565 544.097 124.104 545.872 123.18C547.671 122.257 549.033 120.967 549.956 119.31C550.879 117.629 551.341 115.676 551.341 113.45C551.341 111.201 550.879 109.26 549.956 107.626C549.033 105.969 547.671 104.691 545.872 103.791C544.073 102.892 541.859 102.442 539.232 102.442H530.567V161H512.989ZM595.588 88.2727V161H578.223V88.2727H595.588ZM622.017 161.923C618.537 161.923 615.448 161.343 612.749 160.183C610.074 159 607.955 157.224 606.392 154.857C604.854 152.465 604.084 149.471 604.084 145.872C604.084 142.842 604.617 140.285 605.682 138.202C606.748 136.118 608.215 134.426 610.086 133.124C611.956 131.821 614.11 130.839 616.549 130.176C618.987 129.49 621.591 129.028 624.361 128.791C627.462 128.507 629.96 128.211 631.854 127.903C633.748 127.572 635.121 127.11 635.973 126.518C636.849 125.903 637.287 125.039 637.287 123.926V123.749C637.287 121.926 636.66 120.517 635.405 119.523C634.15 118.528 632.458 118.031 630.327 118.031C628.031 118.031 626.184 118.528 624.787 119.523C623.391 120.517 622.503 121.89 622.124 123.642L606.108 123.074C606.582 119.759 607.801 116.8 609.766 114.196C611.755 111.568 614.477 109.509 617.934 108.017C621.414 106.502 625.592 105.744 630.469 105.744C633.949 105.744 637.157 106.159 640.093 106.987C643.028 107.792 645.585 108.976 647.763 110.538C649.941 112.077 651.622 113.971 652.806 116.22C654.013 118.469 654.617 121.038 654.617 123.926V161H638.282V153.401H637.855C636.885 155.247 635.642 156.81 634.127 158.088C632.635 159.366 630.872 160.325 628.836 160.964C626.823 161.604 624.551 161.923 622.017 161.923ZM627.38 150.56C629.25 150.56 630.931 150.181 632.422 149.423C633.937 148.666 635.145 147.624 636.044 146.298C636.944 144.949 637.394 143.386 637.394 141.611V136.426C636.897 136.687 636.293 136.923 635.583 137.136C634.896 137.349 634.139 137.551 633.31 137.74C632.481 137.929 631.629 138.095 630.753 138.237C629.877 138.379 629.037 138.509 628.232 138.628C626.598 138.888 625.202 139.291 624.042 139.835C622.905 140.38 622.029 141.09 621.414 141.966C620.822 142.818 620.526 143.836 620.526 145.02C620.526 146.819 621.165 148.192 622.444 149.139C623.746 150.086 625.391 150.56 627.38 150.56ZM682.6 129.892V161H665.235V106.455H681.748V116.469H682.351C683.559 113.131 685.618 110.515 688.53 108.621C691.442 106.703 694.91 105.744 698.935 105.744C702.77 105.744 706.096 106.608 708.914 108.337C711.755 110.041 713.956 112.432 715.519 115.51C717.105 118.564 717.886 122.139 717.863 126.234V161H700.498V129.643C700.521 126.613 699.752 124.246 698.189 122.541C696.65 120.837 694.508 119.984 691.762 119.984C689.939 119.984 688.329 120.387 686.932 121.192C685.559 121.973 684.494 123.098 683.736 124.565C683.002 126.033 682.623 127.809 682.6 129.892ZM745.979 129.892V161H728.614V106.455H745.126V116.469H745.73C746.938 113.131 748.997 110.515 751.909 108.621C754.821 106.703 758.289 105.744 762.314 105.744C766.149 105.744 769.475 106.608 772.293 108.337C775.134 110.041 777.335 112.432 778.898 115.51C780.484 118.564 781.265 122.139 781.241 126.234V161H763.876V129.643C763.9 126.613 763.131 124.246 761.568 122.541C760.029 120.837 757.887 119.984 755.141 119.984C753.318 119.984 751.708 120.387 750.311 121.192C748.938 121.973 747.873 123.098 747.115 124.565C746.381 126.033 746.002 127.809 745.979 129.892ZM817.49 162.03C811.784 162.03 806.86 160.905 802.717 158.656C798.598 156.384 795.425 153.152 793.2 148.962C790.998 144.748 789.897 139.741 789.897 133.94C789.897 128.306 791.01 123.382 793.235 119.168C795.461 114.93 798.598 111.639 802.646 109.295C806.694 106.928 811.465 105.744 816.957 105.744C820.84 105.744 824.391 106.348 827.61 107.555C830.83 108.763 833.612 110.55 835.956 112.918C838.299 115.285 840.122 118.209 841.424 121.689C842.726 125.145 843.377 129.111 843.377 133.585V137.918H795.97V127.832H827.22C827.196 125.986 826.758 124.34 825.906 122.896C825.054 121.452 823.882 120.328 822.39 119.523C820.922 118.694 819.23 118.28 817.312 118.28C815.371 118.28 813.631 118.718 812.092 119.594C810.553 120.446 809.334 121.618 808.434 123.109C807.535 124.577 807.061 126.246 807.014 128.116V138.379C807.014 140.605 807.452 142.558 808.328 144.239C809.204 145.896 810.447 147.186 812.056 148.109C813.666 149.033 815.584 149.494 817.809 149.494C819.348 149.494 820.745 149.281 822 148.855C823.254 148.429 824.332 147.802 825.231 146.973C826.131 146.144 826.806 145.126 827.255 143.919L843.2 144.381C842.537 147.955 841.081 151.069 838.832 153.72C836.607 156.348 833.683 158.396 830.061 159.864C826.439 161.308 822.248 162.03 817.49 162.03ZM852.246 161V106.455H869.114V116.398H869.683C870.677 112.799 872.299 110.124 874.548 108.372C876.797 106.597 879.413 105.709 882.396 105.709C883.201 105.709 884.029 105.768 884.881 105.886C885.734 105.981 886.527 106.135 887.261 106.348V121.44C886.432 121.156 885.343 120.931 883.994 120.766C882.668 120.6 881.484 120.517 880.442 120.517C878.383 120.517 876.524 120.979 874.867 121.902C873.234 122.802 871.943 124.068 870.996 125.702C870.073 127.312 869.612 129.205 869.612 131.384V161H852.246Z" fill="#404530"/>
</svg>
